<?xml version="1.0" encoding="utf-8"?><svg xmlns="http://www.w3.org/2000/svg" xmlns:xlink="http://www.w3.org/1999/xlink"><symbol viewBox="0 0 24 16.9" id="Check" xmlns="http://www.w3.org/2000/svg"><path d="M23.7.3c-.4-.4-1-.4-1.4 0L8 14.5 1.7 8.3c-.4-.4-1-.4-1.4 0s-.4 1 0 1.4l7 6.9c.4.4 1 .4 1.4 0l15-14.9c.4-.4.4-1 0-1.4-.4-.4.4.4 0 0z"/></symbol><symbol viewBox="0 0 976.13 976.05" id="Telegram" xmlns="http://www.w3.org/2000/svg"><defs><style>.bcls-1{fill:red}</style></defs><g id="bСлой_2" data-name="Слой 2"><g id="bСлой_1-2" data-name="Слой 1"><path class="bcls-1" d="M468.44.46a436.78 436.78 0 0183.2 4.2c21.9 3.1 43.4 8.6 64.9 13.7a427.82 427.82 0 01122.8 51.4c13.5 8.2 26.4 17.5 39.2 26.8a431.89 431.89 0 0191.6 88.5c20 26.2 39 53.5 53.7 83.1a432.88 432.88 0 0135.1 96.8c5.7 23.8 11.5 47.7 14.2 72.1a431.3 431.3 0 01-.7 107.1c-2.9 23.8-8.8 47-14.3 70.2a429.22 429.22 0 01-71.5 154.3c-12.4 17.4-25.2 34.5-39.8 50.1a426.34 426.34 0 01-46.8 44.3c-13.4 10.8-27.4 20.7-41.4 30.7a430.38 430.38 0 01-112.3 55.4c-20.6 6.9-42 11.2-63.1 16.3a433 433 0 01-187.2.7c-27.3-6.3-54.8-12.2-81.1-22.1a429.2 429.2 0 01-95.1-48.7c-17.7-12.4-35.5-24.9-51.9-39.1a429.84 429.84 0 01-68.3-73.7c-9.9-13.5-19.9-27.1-28.6-41.4a429.55 429.55 0 01-53.1-127c-4.5-19.5-9.6-38.8-12.6-58.6a431.26 431.26 0 011.6-144.7c2.8-15.7 6.8-31.1 10.4-46.6A424 424 0 0163.14 248c10.3-18.2 22.3-35.4 34.8-52.2A432.6 432.6 0 01193 99.86c23-17.3 46.9-33.4 72.6-46.4a428.27 428.27 0 0163.4-26.4c19.8-6.5 40.1-11.1 60.4-15.7a436.73 436.73 0 0179-10.9m-1 60a428.09 428.09 0 00-303.9 706.9c10.4 11.6 20.7 23.3 32.4 33.6 67.4 63.4 156 103.7 248 112.8a428 428 0 00369.2-704c-11.1-12.8-22.6-25.4-35.3-36.7a429.27 429.27 0 00-92.2-64.8c-66.66-35-142.86-51.5-218.16-47.8z" id="b_0082c8ff" data-name="#0082c8ff"/><path class="bcls-1" d="M666.44 321.16c8-1.1 16.6-1.3 24.1 2.3 7.2 3.5 11.2 11.7 10.6 19.4-1.6 26.5-5.5 52.7-9.3 79-12.5 88.9-28.4 177.3-43.2 265.8-1.1 7-2.5 14.2-6.6 20.2-8.8 13.5-26.6 20.8-42.3 16.5-6.1-1.5-11.1-5.4-16.2-8.8-50.1-33.9-100.4-67.4-150-102-7.6-5.4-10.6-15.8-8.5-24.7 3-12.8 11.8-23.1 21.5-31.5 41-40.1 85.7-76.2 124.8-118.2a15.86 15.86 0 004.9-13c-.8-3.5-5.2-2.7-7.7-1.9-9.1 3.1-17.2 8.7-25.2 13.9-54.9 37.6-108.3 77.5-165.5 111.6-8.8 5.2-17.5 11-27.6 13.5-15.9 4-32.8 2.1-48.5-1.9-11.7-2.9-23.1-6.7-34.5-10.3-8.1-2.8-15.9-6.2-23.8-9.2-8.3-3.4-16.7-6.8-24.1-11.9-3.7-2.7-7.9-6.7-7-11.7 1.1-4.5 5-7.8 8.9-10.1 37.2-20.3 75.9-37.4 114.6-54.5 37.6-16.8 75.6-32.6 113.6-48.4 58.7-24.4 117.5-48.3 176.8-71.1 13-5 26-11.16 40.2-13z" id="b_ffffffff" data-name="#ffffffff"/></g></g></symbol><symbol viewBox="0 0 889.47 955.39" id="Viber" xmlns="http://www.w3.org/2000/svg"><defs><style>.ccls-1{fill:red}</style></defs><g id="cСлой_2" data-name="Слой 2"><g id="cСлой_1-2" data-name="Слой 1"><g id="c_ffffffff" data-name="#ffffffff"><path class="ccls-1" d="M384.7 1.32C418.4-.78 452.1 0 485.8 1c45.8 1.3 91.6 6.3 136.4 16.1 41.8 9.2 82.9 23 120.6 43.5 27.7 14.8 52.9 34.9 72.1 59.9 25.9 33.4 42.4 73.1 53.7 113.5 18.9 70.4 22.8 144 20.1 216.6-1.3 34.4-4.3 68.7-8.3 102.9-5.8 48.4-19.1 96.5-44.1 138.7a253.24 253.24 0 01-60.5 69.5c-18.5 14.8-39.4 26.6-61.1 35.9-24.9 10.4-51.1 16.8-77.1 23.7-65.3 15.3-132.7 21.2-199.7 20.7-22.1-.3-44.2-1.2-66.3-3.1q-32.7 38.1-66 75.6c-8.3 9-15.9 18.8-25 27-7.6 6.7-16.5 12.8-26.8 13.7-11.9 1.2-24.8-4-30.8-14.7-8.1-14.2-8.4-31-8.2-46.8-.2-27 .7-54 .4-81 .1-1.8-1.6-2.9-3.1-3.2-36.7-10.8-71.8-28.2-101.3-52.8a259.66 259.66 0 01-60.1-73C28 643.4 15.1 598.3 8.1 552.9c-1.8-12-3.5-24.1-4.3-36.2-1-14.7-2.6-29.3-2.8-44-.2-12-.5-24-1-36C.4 386.3 1.4 335.8 9.3 286c5.7-36.9 15.1-73.3 30.4-107.4 12.3-27.3 28.5-53 49-75 8.5-9.3 18.3-17.2 28.4-24.6 35.9-26 77.6-42.7 120.1-54.7C285.3 11 335 4.12 384.7 1.32m-88 78.5c-38.8 8.1-77.2 20.2-111.7 40-18.2 10.8-35.7 23.4-49.3 39.7-21.9 25.7-37.4 56.5-47.3 88.7-13.7 44.1-18.4 90.4-19.9 136.4-1.1 58.8-3.1 118.3 8.8 176.2 6.8 33.8 18.4 67 37.1 96.1A207.28 207.28 0 00193.3 729c15.2 8.1 31.5 13.9 48 18.9.6 12.2.1 24.5.2 36.7.2 40.3-1.1 80.7-.4 121 .1 4.9-.3 10.1 2.2 14.5a7.33 7.33 0 006.6 4.4c4.1 0 7.7-2.6 10.6-5.3 4.1-3.9 7.9-8.2 11.6-12.3 37.1-41.7 72.2-85.2 108-128.1 2.2-2.5 4-5.6 6.8-7.5 4.2-.2 8.4.3 12.6.5 79.6 3.4 160.1-3.4 237.1-24.3 14.3-3.6 28.6-7.2 42.3-12.7 27.7-10.9 53.3-27.5 73.5-49.5 23-24.6 38.8-55.1 49-87 11-34.3 14.7-70.4 17.7-106.1a907.66 907.66 0 002.8-116.6c-2.5-48.7-8.9-97.7-25.2-143.8-10.9-30.6-26.1-60.5-49.3-83.6-12.3-12.6-27.3-22.1-42.8-30.3-32.3-16.6-67.1-27.8-102.5-35.5-46-9.9-93.2-14-140.2-14.4-55.3-2.28-111 .82-165.2 11.82z"/><path class="ccls-1" d="M436.1 171c12.2-.7 24.5.6 36.6 2 36.8 4.8 72.8 17.3 103.7 37.9 30.3 19.9 55.2 47.6 72.8 79.2 23 41.5 33.6 89.3 34.2 136.5-.1 3.7.5 7.7-1.7 11-4 6.2-13.8 7.4-19.1 2.2-3.4-3.1-3.5-7.9-3.6-12.1-.5-41.9-9.2-84.2-28.8-121.4a200 200 0 00-71-77c-34.7-21.8-75.6-32.9-116.4-33.6-4.3-.2-9.4.1-12.7-3.3-6.6-6.4-3.6-20.18 6-21.4zm-164 28c11.7-2.9 24.4 2.2 31.9 11.3 17.5 21.5 35.1 42.9 49.2 66.8 5.5 9.6 12.3 18.6 15.5 29.3 3.5 13 .9 28.4-9 38-7.7 7-16.2 13.1-24.1 19.9-7.5 6.3-10.3 16.8-9 26.2 1.1 5.8 3.5 11.2 5.6 16.6 13.2 33.9 33.2 65.3 59.6 90.4a202.9 202.9 0 0084.4 48.3c10.3 2.7 22.2-.5 29-8.8 6.6-8.1 12.6-16.7 19.5-24.5 7.7-8.5 19.9-11.6 31.1-10.3 7.6.7 14.6 4.4 21 8.3 25.4 15.6 50.2 32.6 72.5 52.5 6.4 6 13.9 11.6 16.7 20.3 4.5 11.9.3 25-5.9 35.4-9.4 15.4-20.7 29.8-34.5 41.6-12 10-26.7 18.3-42.8 18.3-10.7.5-20.4-4.4-30.2-7.9-36.6-14.3-71.1-33.2-104.6-53.4-30.9-18.7-60.6-39.4-87.4-63.6-50.9-45.7-90.7-102.6-121.7-163.3-15-28.5-29.3-57.6-39.9-88.1a55.71 55.71 0 012.5-41.1c8.9-19.5 24.6-34.8 41.7-47.3 8.8-6.18 18.1-12.58 28.9-14.9z"/><path class="ccls-1" d="M455.1 233.92c4.4-1.1 9.1-.1 13.6.2 35.6 3.8 71 16.6 98.2 40.4 20.9 17.9 36.4 41.9 45 68a172.52 172.52 0 018.7 66.1c-.5 8.9-12.7 12.5-19.1 7.3-4.7-3.1-4.9-9.3-4.8-14.3.4-35.3-10.9-71.6-35-98-23.8-25.9-57.9-40.5-92.5-44.5-5.6-.9-11.7-.4-16.8-3.1-7.9-5.02-6.3-19.2 2.7-22.1z"/><path class="ccls-1" d="M473.1 298.82c4.3-1.3 8.9-.4 13.3 0 18.5 2.2 37.2 9.1 50.5 22.7 16.6 17.1 23.4 41.7 23.4 65.1.2 5.5-4.6 9.9-9.7 10.8-5.7 1.3-12.3-2-13.7-7.9s-1-12-2.2-17.9c-2.5-14.7-9.2-29.6-21.9-38.1-11.3-8-25.4-9.6-38.8-11.2-11.1-2-11.5-20.4-.9-23.5z"/></g></g></g></symbol><symbol viewBox="0 0 953.9 953.97" id="Whatsapp" xmlns="http://www.w3.org/2000/svg"><defs><style>.dcls-1{fill:red}</style></defs><g id="dСлой_2" data-name="Слой 2"><g id="dСлой_1-2" data-name="Слой 1"><g id="d_ffffffff" data-name="#ffffffff"><path class="dcls-1" d="M375.3 12.73c61.7-14.9 126.4-16.4 189-6.2a453.4 453.4 0 01116.6 35.6 461.8 461.8 0 0196.2 59.8 481.46 481.46 0 0177.7 77.3 440.79 440.79 0 0157.4 94.6 495 495 0 0136.3 123.1c4 28.2 6.4 56.8 5 85.3-2.1 49.9-11.4 99.7-29.1 146.4-26.7 70.6-70.7 134.7-127.5 184.4a485.67 485.67 0 01-95 65 460.72 460.72 0 01-140.9 46.5c-61.3 10.1-124.6 7.6-185.1-6.3a434 434 0 01-105.3-38.8c-3.8-1.9-7.5-4.4-11.9-4.9-4-.5-7.9.6-11.6 1.9q-115.35 36.75-230.7 73.1c-5.5 1.3-10.5 4.8-16.3 4.4a12.8 12.8 0 011-6.7c26.7-78.2 52.8-156.7 79.8-235 1.9-4.5.7-9.5-1.8-13.4a445.74 445.74 0 01-46.6-110.2c-13.1-48.2-19-98.6-16.3-148.5A466.41 466.41 0 0196 205.33c40.6-59 94.4-109 156.9-144.1a477.33 477.33 0 01122.4-48.5m71.6 67.5c-18.4 1.9-36.9 4.3-54.8 9.4-50 13.1-98.2 34.3-140 64.8a369.68 369.68 0 00-72.7 70.3c-22 28-40 59-54.4 91.5a359.59 359.59 0 00-30 121.9 396.91 396.91 0 0016.5 140.4 376.92 376.92 0 0051.6 105.4c2.3 3.3 4.4 7 4.3 11.2-.2 4.8-2.4 9.2-3.8 13.8-7.9 23.2-15.8 46.3-23.6 69.5-6.1 17.3-11.4 34.8-17.8 52-.6 1.4 0 2.8.2 4.2 3.4.9 6.4-1.4 9.6-2.3 36.2-11.5 72.4-22.8 108.5-34.7 7.2-2.2 14.1-5.1 21.5-6.7 7.1-1.5 14.3 1.1 20.3 4.8 40.9 24.4 85.8 42.4 132.7 51 66.7 12.5 136.2 5.3 200.1-16.5a373.22 373.22 0 00137.9-84c38.2-36.6 69.8-80.5 90.9-129.1 25.1-58 34.7-122.2 29.6-185.1-5.9-72.1-33.7-141.8-77.1-199.5-41-54.3-96.8-96.9-159.2-123.8a379.7 379.7 0 00-133.3-29.5c-19-.5-38.1-1-57 1z"/><path class="dcls-1" d="M321.3 237.73c9.6-1.6 19 2 28.6 1.2 4.7-.3 9.7-.1 13.9 2.2 5.9 3 9.8 8.8 12.1 14.8 11.2 29.2 22.1 58.5 33.2 87.8 2 6 5.4 11.9 4.9 18.4-.3 5.3-3.1 9.9-5.6 14.4-6.5 11.1-15.3 20.6-24.3 29.7-4.2 4.5-9.1 8.5-11.9 14.1-2.4 5 .2 10.4 2.6 14.8 16.3 29.8 36.3 57.7 60.5 81.5a298.91 298.91 0 0076.9 55.1c6.2 3.2 12.8 5.6 18.7 9.3 4.2 2.4 9 4.5 14 4.3a17.89 17.89 0 0011.6-5.5c14.1-14 27-29.1 39.5-44.5 3.2-3.7 6.5-7.8 11.2-9.5 5.2-1.7 10.5.6 15.3 2.6 32 14.6 62.6 32 93.6 48.5 4 2.1 8.1 4.6 10.3 8.7 2.6 4.8 2.5 10.4 2.2 15.6-1.3 17.4-6.5 34.7-16.5 49.1-9.4 13.6-22.6 24.3-37.3 31.7-15.1 7.6-31.5 12.3-48.2 14.9a100 100 0 01-34.5-.7c-10.1-1.9-19.8-5.5-29.5-8.6-37.6-12.3-74.7-27-108.6-47.5a405.41 405.41 0 01-74.5-58.5c-25.9-25.5-48.4-54.2-69.2-83.8a620 620 0 01-34.1-54.9 196.32 196.32 0 01-17.7-41.4c-4.3-14.4-7.7-29.2-8.4-44.2-.5-28.5 7.4-57.5 23.9-80.9a145.59 145.59 0 0124.8-27.2c6.3-5.9 14-10.23 22.5-11.5z"/></g></g></g></symbol><symbol viewBox="0 0 447.9 351" id="arrow" xmlns="http://www.w3.org/2000/svg"><path d="M181.8 4c5.2-4.8 13.6-5.3 19.3-1.2 5.7 3.8 8.3 11.8 5.7 18.2-1.8 5.1-6.6 8.2-10.3 11.8-42.8 38.7-85.6 77.6-128.5 116.4-3.6 3.3-7.4 6.5-10.7 10.1 26.9.4 53.7.1 80.6.2h294c8.7-.2 16.5 7.7 16 16.5-.1 8.8-8.3 16.1-17 15.4h-374c19.6 18.3 39.7 36.1 59.5 54.2 28.3 25.7 56.6 51.4 85 77 2.8 2.4 5.2 5.3 6 8.9 2 7.1-1.9 15.4-8.8 18.1-5.4 2.5-12.2 1.4-16.6-2.6-57.3-52-114.7-104-172-156-3.2-2.9-7.1-5.2-8.6-9.4-3.4-7.3.7-16 7-20.3C66.2 109 124 56.4 181.8 4z"/></symbol><symbol id="mail" viewBox="0 0 48.2 35.3" xml:space="preserve" xmlns="http://www.w3.org/2000/svg"><style>.fst1{fill:none;stroke:#000;stroke-width:4;stroke-miterlimit:10}</style><path stroke-width="4" stroke-linecap="round" stroke-miterlimit="10" d="M2 2h44.2v31.3H2z"/><path class="fst1" d="M31.8 18.2l14.3 11.3m-44 0L17 17.7M2.1 5.7S19 20.4 20.4 21.6s2.9 1.5 3.7 1.5 2.3-.3 3.7-1.5c1.4-1.1 18.3-15.9 18.3-15.9"/></symbol><symbol id="message" viewBox="0 0 48.2 35.3" xml:space="preserve" xmlns="http://www.w3.org/2000/svg"><style>.gst1{fill:none;stroke:#0000;stroke-width:4;stroke-miterlimit:10}</style><path stroke-width="4" stroke-linecap="round" stroke-miterlimit="10" d="M2 2h44.2v31.3H2z"/><path class="gst1" d="M31.8 18.2l14.3 11.3m-44 0L17 17.7M2.1 5.7S19 20.4 20.4 21.6s2.9 1.5 3.7 1.5 2.3-.3 3.7-1.5c1.4-1.1 18.3-15.9 18.3-15.9"/></symbol><symbol viewBox="0 0 48.3 48.1" id="phone" xmlns="http://www.w3.org/2000/svg"><path d="M28.9 33.6s3.7-2.1 4.7-2.7c1-.6 2-.6 2.6-.3.9.6 8.7 5.7 9.4 6.2s1 1.7.1 3-5.1 6.3-6.8 6.3c-1.7-.1-9-.2-22.8-14S2.1 11.1 2 9.4s5.1-5.9 6.4-6.8 2.6-.6 3 .1c.6.7 5.6 8.5 6.2 9.4.4.6.3 1.7-.3 2.6-.6 1-2.7 4.7-2.7 4.7s1.5 2.6 6.6 7.6 7.7 6.6 7.7 6.6z"/></symbol><symbol viewBox="0 0 32 32" id="play" xmlns="http://www.w3.org/2000/svg"><path d="M16 0C7.2 0 0 7.2 0 16s7.2 16 16 16 16-7.2 16-16S24.8 0 16 0zm-6 24V8l16 8-16 8z"/></symbol><symbol viewBox="0 0 16 14" id="svg1" xmlns="http://www.w3.org/2000/svg"><path class="jst0" d="M2.5 8.3V14h3.9v-3.9h3.1V14h3.9V8.3L8 2.9 2.5 8.3zm13.3-.8L8.4.2c-.2-.2-.6-.2-.9 0L.2 7.5c-.6.5.3 1.4.8.8l7-6.9 7 6.9c.5.6 1.4-.3.8-.8z"/></symbol><symbol viewBox="0 0 512 512" id="svg10" xmlns="http://www.w3.org/2000/svg"><path d="M488.399 492h-21.933V173.536c0-14.823-12.06-26.882-26.882-26.882H390.56c-14.823 0-26.882 12.06-26.882 26.882V492h-55.692V317.825c0-14.823-12.059-26.882-26.882-26.882H232.08c-14.823 0-26.882 12.06-26.882 26.882V492h-55.692v-90.204c0-14.823-12.06-26.882-26.882-26.882H73.599c-14.823 0-26.882 12.06-26.882 26.882V492H23.601c-5.523 0-10 4.477-10 10s4.477 10 10 10h464.798c5.523 0 10-4.477 10-10s-4.477-10-10-10zm-358.895 0H66.716v-90.204a6.89 6.89 0 016.882-6.882h49.024a6.89 6.89 0 016.882 6.882V492zm158.481 0h-62.788V317.825a6.89 6.89 0 016.882-6.882h49.024a6.89 6.89 0 016.882 6.882V492zm158.481 0h-62.788V173.536a6.89 6.89 0 016.882-6.882h49.024a6.89 6.89 0 016.882 6.882V492zm19.976-481.484A9.965 9.965 0 00455.95.024c-.161-.007-.32-.024-.484-.024h-60.5c-5.523 0-10 4.477-10 10s4.477 10 10 10h37.357l-98.857 98.858-37.28-37.28a10.001 10.001 0 00-14.142 0l-179.769 179.77c-3.905 3.905-3.905 10.237 0 14.143 1.953 1.951 4.512 2.927 7.071 2.927s5.119-.976 7.071-2.929L289.115 102.79l37.28 37.28c3.905 3.905 10.237 3.905 14.143 0L446.466 34.143v33.81c0 5.523 4.477 10 10 10s10-4.477 10-10V11c0-.163-.017-.322-.024-.484z"/><circle cx="75.64" cy="303.31" r="10"/></symbol><symbol viewBox="0 0 18 14" id="svg2" xmlns="http://www.w3.org/2000/svg"><path class="lst0" d="M3 9.1c.4 1.7.9 2.5 2.7 3.3C7.5 13.1 8.3 14 9 14s1.5-.8 3.3-1.6 1.3-1 1.7-2.8l-5 2.5-6-3zm14.6-4.6L10.1.2C9.5-.1 8.5-.1 8 .2L.4 4.5c-.6.3-.6.9 0 1.2L7.9 10c.6.3 1.6.3 2.1 0l4.9-2.8L9.7 6c-.2.1-.4.1-.7.1-.9 0-1.7-.5-1.7-1 0-.6.8-1 1.7-1 .7 0 1.4.3 1.6.7l5.6 1.9 1.4-.8c.6-.5.6-1 0-1.4zm-2.3 8.2c-.1.4 1.2.9 1.3-.1.5-4.7-.4-6-.4-6l-1.3.7s1.1 1 .4 5.4z"/></symbol><symbol viewBox="0 0 16 13.6" id="svg3" xmlns="http://www.w3.org/2000/svg"><path class="mst0" d="M7.3 7.2h1.4v1.6H16s-.1-3.6-.2-4.7c0-1.1-.4-1.7-1.6-1.7h-2.6c-.4-.7-.8-1.6-1-1.8-.1-.5-.2-.6-.8-.6H6.2c-.6 0-.7.1-.9.6-.1.2-.6 1.1-1 1.8H1.8C.6 2.4.2 3.1.2 4.1.1 5.2 0 8.8 0 8.8h7.3V7.2zM6.1 1.5c.2-.3.2-.4.7-.4h2.5c.4 0 .5.1.7.4.1.1.3.5.5.9H5.7c.2-.4.4-.7.4-.9zm2.6 9.7H7.3V9.6H.4s.1 1.4.2 2.7c0 .5.2 1.3 1.4 1.3h12c1.3 0 1.4-.8 1.4-1.3.1-1.3.2-2.7.2-2.7H8.7v1.6z"/></symbol><symbol viewBox="0 0 16 11.4" id="svg4" xmlns="http://www.w3.org/2000/svg"><path class="nst0" d="M16 1.6v-1c0-.3-.3-.6-.6-.6H.7C.3 0 0 .3 0 .7v1h1.6v1.6H0v1.6h1.6v1.6H0v1.6h1.6v1.6H0v1c0 .4.3.7.7.7h14.7c.4 0 .7-.3.7-.7v-1h-1.6V8.2H16V6.5h-1.6V4.9H16V3.3h-1.6V1.6H16zM6.2 8.2V3.3l4.1 2.4-4.1 2.5z"/></symbol><symbol viewBox="0 0 12.7 18" id="svg5" xmlns="http://www.w3.org/2000/svg"><path class="ost0" d="M12.4 4.5L4.2.2C3.1-.4.9.8.2 1.8c-.2.4-.2.7-.2.9l.1 9.7c0 .2.3.5.5.6.5.3 7.3 4.7 7.5 4.8.1.2.2.2.3.2s.2 0 .3-.1c.2-.1.3-.3.3-.5V7.2c0-.2-.1-.4-.3-.5L1.3 2.4c.1-.2.4-.5 1-.8.7-.4 1.2-.3 1.3-.2 0 0 7.1 3.9 7.3 4s.2.1.2.3v9.7c0 .5.5.7.8.7.4 0 .7-.4.7-.7V5c.1-.2 0-.4-.2-.5z"/></symbol><symbol viewBox="0 0 16 16" id="svg6" xmlns="http://www.w3.org/2000/svg"><path class="pst0" d="M14.2 1.8h-.8v1.8h-2.8V1.8H5.4v1.8H2.6V1.8h-.8c-1 0-1.8.8-1.8 1.8v10.7c0 1 .8 1.8 1.8 1.8h12.4c1 0 1.8-.8 1.8-1.8V3.6c0-1-.8-1.8-1.8-1.8zm0 12.4H1.8V7.1h12.4v7.1zM4.6 0H3.4v3h1.2V0zm8 0h-1.2v3h1.2V0z"/></symbol><symbol viewBox="0 0 14.2 18" id="svg7" xmlns="http://www.w3.org/2000/svg"><path class="qst0" d="M13.1 8.5c2.7-4.8-.5-8.3-.5-8.4s-.1-.1-.2-.1H1.9c-.2 0-.3.1-.4.2-.1.2 0 .3.1.4.1.2 2.8 3.2.4 7.5l-.6.9c-.7 1-2.8 4.4.2 8.8 0 .2.1.2.3.2h10.5c.2 0 .4-.2.4-.4 0-.1 0-.2-.1-.3-2.7-3.9-.8-7-.2-7.9.2-.2.4-.5.6-.9zm-5.2 7.6c0 .2-.1.3-.2.3-.1.1-.3 0-.4 0l-.9-.6-.9.6s-.1.1-.2.1h-.2c-.1-.1-.2-.2-.2-.3v-2.7c.5.3.9.4 1.5.4s1-.2 1.5-.4v2.6zm-1.5-3c-1.2 0-2.3-1-2.3-2.2s1-2.2 2.3-2.2c1.2 0 2.2 1 2.2 2.2s-1 2.2-2.2 2.2zm4.8-6h-6c-.2 0-.3-.1-.3-.3s.2-.4.4-.4h6c.2 0 .4.1.4.4-.1.2-.2.3-.5.3zm0-2.2h-6c-.2 0-.3-.2-.3-.4s.2-.4.4-.4h6c.2 0 .4.1.4.4-.1.2-.2.4-.5.4zm0-2.3h-6c-.2 0-.3-.1-.3-.3s.1-.4.3-.4h6c.2 0 .4.2.4.4s-.1.3-.4.3z"/></symbol><symbol viewBox="0 0 16 10" id="svg8" xmlns="http://www.w3.org/2000/svg"><path class="rst0" d="M.5.9C1 1.2 7 4.3 7.2 4.4s.5.2.8.2.6-.1.8-.2S15 1.2 15.5.9c.4-.2.8-.9 0-.9H.5C-.3 0 .1.7.5.9zm15.2 1.8c-.5.2-6.6 3.3-6.9 3.4-.3.2-.5.2-.8.2s-.5 0-.8-.2C6.9 6 .8 2.9.3 2.7c-.3-.2-.3 0-.3.1v6.4c0 .3.5.8.9.8h14.2c.4 0 .9-.5.9-.8V2.9c0-.2 0-.4-.3-.2z"/></symbol><symbol viewBox="0 0 17 16" id="svg9" xmlns="http://www.w3.org/2000/svg"><path class="sst0" d="M10.7 11.6c0-.1-.1-.2-.2-.3-.7-.3-1-1.4-1.1-1.9.5-.5 1-1.2 1-1.8 0-.2.1-.3.1-.3.1 0 .2-.1.2-.2s.3-.9.3-1.4v-.1c0-.1-.1-.4-.3-.5V3.3c0-1.1-.3-1.5-.7-1.8C9.9 1 9.4 0 7.3 0 5.3 0 4 1.9 4 3.3v1.8c-.2.1-.3.3-.3.5v.1c0 .5.3 1.3.3 1.4s.1.2.2.2c0 0 .1.1.1.4 0 .6.5 1.3 1 1.8-.1.4-.4 1.6-1.1 1.9l-3 1c-.8.3-1.1 1-1.3 1.6v1.7c.1.2.2.3.4.3h8c.2 0 .3-.1.3-.3v-1.4c0-.3.1-.5.3-.7l1.7-1.7c.1-.1.1-.2.1-.3zm4.1-2.3c-1.2 0-2.2 1-2.2 2.2v.3L10.4 14c-.1.1-.1.1-.1.2v1.4c0 .2.1.3.3.3H12c.1 0 .2 0 .2-.1l2.2-2.2c1.3.2 2.5-.9 2.5-2.2.1-1.1-.9-2.1-2.1-2.1zm.5 2c-.2 0-.3-.2-.3-.3s.1-.3.3-.3.3.1.3.3-.1.3-.3.3z"/></symbol><symbol viewBox="0 0 42.2 44.6" id="user" xmlns="http://www.w3.org/2000/svg"><path d="M26 30.1c-.1-1.6-.1-2.7-.1-4.2.7-.4 2-2.8 2.3-4.9.6 0 1.5-.6 1.7-2.8.1-1.2-.4-1.9-.8-2.1 1-2.8 2.9-11.5-3.5-12.3C24.9 2.6 23.2 2 21 2c-8.9.2-9.9 6.7-8 14.2-.3.2-.9.9-.8 2.1.3 2.2 1.2 2.8 1.7 2.8.2 2.1 1.6 4.5 2.3 4.9 0 1.5.1 2.6-.1 4.2-1.6 4.6-13.5 3.3-14 12.4h38c-.5-9.1-12.3-7.8-14.1-12.5z"/></symbol></svg>