<?xml version="1.0" encoding="utf-8"?>
<!-- Generator: Adobe Illustrator 22.1.0, SVG Export Plug-In . SVG Version: 6.00 Build 0)  -->
<svg version="1.1" id="Слой_1" xmlns="http://www.w3.org/2000/svg" xmlns:xlink="http://www.w3.org/1999/xlink" x="0px" y="0px"
	 viewBox="0 0 447.9 351" style="enable-background:new 0 0 447.9 351;" xml:space="preserve">
<style type="text/css">
	.st0{fill:#010101;}
</style>
<g id="_x23_010101ff">
	<path class="st0" d="M181.8,4c5.2-4.8,13.6-5.3,19.3-1.2c5.7,3.8,8.3,11.8,5.7,18.2c-1.8,5.1-6.6,8.2-10.3,11.8
		C153.7,71.5,110.9,110.4,68,149.2c-3.6,3.3-7.4,6.5-10.7,10.1c26.9,0.4,53.7,0.1,80.6,0.2c98,0,196,0,294,0
		c8.7-0.2,16.5,7.7,16,16.5c-0.1,8.8-8.3,16.1-17,15.4c-124.7,0-249.3,0-374,0c19.6,18.3,39.7,36.1,59.5,54.2
		c28.3,25.7,56.6,51.4,85,77c2.8,2.4,5.2,5.3,6,8.9c2,7.1-1.9,15.4-8.8,18.1c-5.4,2.5-12.2,1.4-16.6-2.6c-57.3-52-114.7-104-172-156
		c-3.2-2.9-7.1-5.2-8.6-9.4c-3.4-7.3,0.7-16,7-20.3C66.2,109,124,56.4,181.8,4z"/>
</g>
</svg>
