<svg enable-background="new 0 0 18 14" version="1.1" viewBox="0 0 18 14" xml:space="preserve" xmlns="http://www.w3.org/2000/svg">
                <path class="st0" d="m3 9.1c0.4 1.7 0.9 2.5 2.7 3.3 1.8 0.7 2.6 1.6 3.3 1.6s1.5-0.8 3.3-1.6 1.3-1 1.7-2.8l-5 2.5-6-3zm14.6-4.6l-7.5-4.3c-0.6-0.3-1.6-0.3-2.1 0l-7.6 4.3c-0.6 0.3-0.6 0.9 0 1.2l7.5 4.3c0.6 0.3 1.6 0.3 2.1 0l4.9-2.8-5.2-1.2c-0.2 0.1-0.4 0.1-0.7 0.1-0.9 0-1.7-0.5-1.7-1 0-0.6 0.8-1 1.7-1 0.7 0 1.4 0.3 1.6 0.7l5.6 1.9 1.4-0.8c0.6-0.5 0.6-1 0-1.4zm-2.3 8.2c-0.1 0.4 1.2 0.9 1.3-0.1 0.5-4.7-0.4-6-0.4-6l-1.3 0.7s1.1 1 0.4 5.4z"></path>
            </svg>