<svg enable-background="new 0 0 16 13.6" version="1.1" viewBox="0 0 16 13.6" xml:space="preserve" xmlns="http://www.w3.org/2000/svg">
                <path class="st0" d="M7.3,7.2h1.4v1.6H16c0,0-0.1-3.6-0.2-4.7c0-1.1-0.4-1.7-1.6-1.7h-2.6c-0.4-0.7-0.8-1.6-1-1.8  C10.5,0.1,10.4,0,9.8,0H6.2C5.6,0,5.5,0.1,5.3,0.6c-0.1,0.2-0.6,1.1-1,1.8H1.8c-1.2,0-1.6,0.7-1.6,1.7C0.1,5.2,0,8.8,0,8.8h7.3V7.2z   M6.1,1.5c0.2-0.3,0.2-0.4,0.7-0.4h2.5c0.4,0,0.5,0.1,0.7,0.4c0.1,0.1,0.3,0.5,0.5,0.9H5.7C5.9,2,6.1,1.7,6.1,1.5z M8.7,11.2H7.3  V9.6H0.4c0,0,0.1,1.4,0.2,2.7c0,0.5,0.2,1.3,1.4,1.3h12c1.3,0,1.4-0.8,1.4-1.3c0.1-1.3,0.2-2.7,0.2-2.7H8.7V11.2z"></path>
            </svg>