<svg enable-background="new 0 0 12.7 18" version="1.1" viewBox="0 0 12.7 18" xml:space="preserve" xmlns="http://www.w3.org/2000/svg">
                <path class="st0" d="m12.4 4.5l-8.2-4.3c-1.1-0.6-3.3 0.6-4 1.6-0.2 0.4-0.2 0.7-0.2 0.9l0.1 9.7c0 0.2 0.3 0.5 0.5 0.6 0.5 0.3 7.3 4.7 7.5 4.8 0.1 0.2 0.2 0.2 0.3 0.2s0.2 0 0.3-0.1c0.2-0.1 0.3-0.3 0.3-0.5v-10.2c0-0.2-0.1-0.4-0.3-0.5l-7.4-4.3c0.1-0.2 0.4-0.5 1-0.8 0.7-0.4 1.2-0.3 1.3-0.2 0 0 7.1 3.9 7.3 4s0.2 0.1 0.2 0.3v9.7c0 0.5 0.5 0.7 0.8 0.7 0.4 0 0.7-0.4 0.7-0.7v-10.4c0.1-0.2 0-0.4-0.2-0.5z"></path>
            </svg>