<svg enable-background="new 0 0 14.2 18" version="1.1" viewBox="0 0 14.2 18" xml:space="preserve" xmlns="http://www.w3.org/2000/svg">
                <path class="st0" d="m13.1 8.5c2.7-4.8-0.5-8.3-0.5-8.4s-0.1-0.1-0.2-0.1h-10.5c-0.2 0-0.3 0.1-0.4 0.2-0.1 0.2 0 0.3 0.1 0.4 0.1 0.2 2.8 3.2 0.4 7.5l-0.6 0.9c-0.7 1-2.8 4.4 0.2 8.8 0 0.2 0.1 0.2 0.3 0.2h10.5c0.2 0 0.4-0.2 0.4-0.4 0-0.1 0-0.2-0.1-0.3-2.7-3.9-0.8-7-0.2-7.9 0.2-0.2 0.4-0.5 0.6-0.9zm-5.2 7.6c0 0.2-0.1 0.3-0.2 0.3-0.1 0.1-0.3 0-0.4 0l-0.9-0.6-0.9 0.6s-0.1 0.1-0.2 0.1h-0.2c-0.1-0.1-0.2-0.2-0.2-0.3v-2.7c0.5 0.3 0.9 0.4 1.5 0.4s1-0.2 1.5-0.4v2.6zm-1.5-3c-1.2 0-2.3-1-2.3-2.2s1-2.2 2.3-2.2c1.2 0 2.2 1 2.2 2.2s-1 2.2-2.2 2.2zm4.8-6h-6c-0.2 0-0.3-0.1-0.3-0.3s0.2-0.4 0.4-0.4h6c0.2 0 0.4 0.1 0.4 0.4-0.1 0.2-0.2 0.3-0.5 0.3zm0-2.2h-6c-0.2 0-0.3-0.2-0.3-0.4s0.2-0.4 0.4-0.4h6c0.2 0 0.4 0.1 0.4 0.4-0.1 0.2-0.2 0.4-0.5 0.4zm0-2.3h-6c-0.2 0-0.3-0.1-0.3-0.3s0.1-0.4 0.3-0.4h6c0.2 0 0.4 0.2 0.4 0.4s-0.1 0.3-0.4 0.3z"></path>
            </svg>