<svg enable-background="new 0 0 16 10" version="1.1" viewBox="0 0 16 10" xml:space="preserve" xmlns="http://www.w3.org/2000/svg">
                <path class="st0" d="m0.5 0.9c0.5 0.3 6.5 3.4 6.7 3.5s0.5 0.2 0.8 0.2 0.6-0.1 0.8-0.2 6.2-3.2 6.7-3.5c0.4-0.2 0.8-0.9 0-0.9h-15c-0.8 0-0.4 0.7 0 0.9zm15.2 1.8c-0.5 0.2-6.6 3.3-6.9 3.4-0.3 0.2-0.5 0.2-0.8 0.2s-0.5 0-0.8-0.2c-0.3-0.1-6.4-3.2-6.9-3.4-0.3-0.2-0.3 0-0.3 0.1v6.4c0 0.3 0.5 0.8 0.9 0.8h14.2c0.4 0 0.9-0.5 0.9-0.8v-6.3c0-0.2 0-0.4-0.3-0.2z"></path>
            </svg>