<svg enable-background="new 0 0 17 16" version="1.1" viewBox="0 0 17 16" xml:space="preserve" xmlns="http://www.w3.org/2000/svg">
                <path class="st0" d="m10.7 11.6c0-0.1-0.1-0.2-0.2-0.3-0.7-0.3-1-1.4-1.1-1.9 0.5-0.5 1-1.2 1-1.8 0-0.2 0.1-0.3 0.1-0.3 0.1 0 0.2-0.1 0.2-0.2s0.3-0.9 0.3-1.4v-0.1c0-0.1-0.1-0.4-0.3-0.5v-1.8c0-1.1-0.3-1.5-0.7-1.8-0.1-0.5-0.6-1.5-2.7-1.5-2 0-3.3 1.9-3.3 3.3v1.8c-0.2 0.1-0.3 0.3-0.3 0.5v0.1c0 0.5 0.3 1.3 0.3 1.4s0.1 0.2 0.2 0.2c0 0 0.1 0.1 0.1 0.4 0 0.6 0.5 1.3 1 1.8-0.1 0.4-0.4 1.6-1.1 1.9l-3 1c-0.8 0.3-1.1 1-1.3 1.6v0.1 1.6c0.1 0.2 0.2 0.3 0.4 0.3h8c0.2 0 0.3-0.1 0.3-0.3v-1.4c0-0.3 0.1-0.5 0.3-0.7l1.7-1.7c0.1-0.1 0.1-0.2 0.1-0.3zm4.1-2.3c-1.2 0-2.2 1-2.2 2.2v0.3l-2.2 2.2c-0.1 0.1-0.1 0.1-0.1 0.2v1.4c0 0.2 0.1 0.3 0.3 0.3h1.4c0.1 0 0.2 0 0.2-0.1l2.2-2.2c1.3 0.2 2.5-0.9 2.5-2.2 0.1-1.1-0.9-2.1-2.1-2.1zm0.5 2c-0.2 0-0.3-0.2-0.3-0.3s0.1-0.3 0.3-0.3 0.3 0.1 0.3 0.3-0.1 0.3-0.3 0.3z"></path>
            </svg>